Coordinates
version=1
nRows=5
nColumns=42
inDegrees=yes

Units are S.I. units (second, meters, Newtons, ...)
If the header above contains a line with 'inDegrees', this indicates whether rotational values are in degrees (yes) or radians (no).

endheader
time	pelvis_tilt	pelvis_list	pelvis_rotation	pelvis_tx	pelvis_ty	pelvis_tz	hip_flexion_r	hip_adduction_r	hip_rotation_r	knee_angle_r	knee_adduction_r	knee_angle_r_beta	ankle_angle_r	subtalar_angle_r	mtp_angle_r	hip_flexion_l	hip_adduction_l	hip_rotation_l	knee_angle_l	knee_adduction_l	knee_angle_l_beta	ankle_angle_l	subtalar_angle_l	mtp_angle_l	lumbar_extension	lumbar_bending	lumbar_rotation	arm_flex_r	arm_add_r	arm_rot_r	elbow_flex_r	pro_sup_r	wrist_flex_r	wrist_dev_r	arm_flex_l	arm_add_l	arm_rot_l	elbow_flex_l	pro_sup_l	wrist_flex_l	wrist_dev_l
      3.26000000	      9.44200626	     -0.57646525	      4.22765807	      0.50263754	      0.84791874	      0.17799776	    -10.50443987	      6.66751921	     -4.53268312	     51.04910244	     -2.74815900	      0.89097492	     17.61166338	     -7.59681100	     -7.50040914	     26.03589109	      7.73303915	     -5.79773659	     40.94260246	     -8.81129831	      0.71458322	     11.45696207	    -18.64330911	     -7.50040914	    -33.24873856	      3.33242026	      0.06793171	     23.48593220	    -12.53814908	      7.04689998	     48.68103687	     90.00000001	      0.00000000	      0.00000000	      1.13002518	     -8.39296357	    -27.26921303	     21.07692309	     90.00000001	      0.00000000	      0.00000000
      3.27000000	      9.19650041	     -0.24031837	      4.19555632	      0.51199080	      0.84862553	      0.17695350	     -8.83466796	      5.66493242	     -2.92559806	     54.49127741	     -1.20328550	      0.95105220	     15.64807128	     -8.51666485	     -7.50039378	     25.66080910	      8.18177834	     -5.87335267	     41.16269788	     -8.81566404	      0.71842461	     11.96291906	    -18.65355784	     -7.50039378	    -33.06523090	      2.91307439	     -0.20911845	     22.85120976	    -12.25454971	      6.80081255	     48.77350857	     90.00000001	      0.00000000	      0.00000000	      1.65060078	     -8.51094247	    -27.00809094	     21.32467311	     90.00000001	      0.00000000	      0.00000000
      3.28000000	      9.10539804	      0.12738717	      4.13456191	      0.52120360	      0.84958603	      0.17599977	     -7.23708305	      4.60856133	     -1.72961679	     57.80843265	      0.02779490	      1.00894749	     14.21330286	     -8.52836360	     -7.50038972	     24.97752049	      8.63923752	     -6.16409223	     41.09044503	     -8.95746287	      0.71716356	     12.64046068	    -18.58657007	     -7.50038972	    -33.08616007	      2.44435342	     -0.46905492	     22.30537931	    -11.96707613	      6.77105065	     48.77156808	     90.00000001	      0.00000000	      0.00000000	      2.20395012	     -8.60943956	    -26.87458164	     21.58378011	     90.00000001	      0.00000000	      0.00000000
      3.29000000	      8.50879322	      0.39220174	      4.02560204	      0.52978761	      0.84970147	      0.17500125	     -4.81624312	      3.67062771	      0.42810691	     61.23757049	      1.92655143	      1.06879723	     12.93191074	     -9.36134550	     -7.50038007	     24.99794938	      9.00213059	     -6.66474101	     41.08644230	     -9.17153432	      0.71709370	     13.27437668	    -18.47800596	     -7.50038007	    -32.62126189	      2.10278326	     -0.68400764	     21.60599883	    -11.73845762	      6.58218398	     48.84330521	     90.00000001	      0.00000000	      0.00000000	      2.72829428	     -8.63106013	    -26.57896765	     22.04293420	     90.00000001	      0.00000000	      0.00000000
      3.30000000	      8.01250994	      0.46598379	      3.84685779	      0.53798622	      0.85008676	      0.17434841	     -2.54552966	      3.08235201	      4.44292225	     64.22511041	      5.36132573	      1.12093964	     11.68574105	    -13.10000870	     -7.50035548	     24.94005719	      8.97567118	     -7.18273318	     41.16511563	     -9.15426850	      0.71846680	     13.72942939	    -18.41320901	     -7.50035548	    -32.33467569	      1.94848025	     -0.71184753	     21.06870192	    -11.39142168	      5.97588511	     48.80316831	     90.00000001	      0.00000000	      0.00000000	      3.29491579	     -8.68124273	    -25.83175082	     22.48717868	     90.00000001	      0.00000000	      0.00000000
